<?xml version="1.0" standalone="no"?>
<!DOCTYPE svg PUBLIC "-//W3C//DTD SVG 20010904//EN"
 "http://www.w3.org/TR/2001/REC-SVG-20010904/DTD/svg10.dtd">
<svg version="1.0" xmlns="http://www.w3.org/2000/svg"
 width="275.000000pt" height="275.000000pt" viewBox="0 0 275.000000 275.000000"
 preserveAspectRatio="xMidYMid meet">
<metadata>
Created by potrace 1.11, written by Peter Selinger 2001-2013
</metadata>
<g transform="translate(0.000000,275.000000) scale(0.100000,-0.100000)"
fill="#000000" stroke="none">
<path d="M0 1375 l0 -1155 1375 0 1375 0 0 1155 0 1155 -1375 0 -1375 0 0
-1155z m1815 1040 c218 -35 427 -135 583 -279 67 -63 164 -185 156 -198 -3 -4
-23 -8 -45 -8 -37 0 -46 7 -132 93 -101 101 -197 170 -313 224 -82 37 -224 76
-316 87 l-58 6 0 -559 c0 -500 2 -559 16 -565 9 -3 240 -6 515 -6 l499 0 0
-28 c0 -49 -40 -184 -80 -269 -148 -316 -460 -552 -805 -608 -414 -68 -839
105 -1086 441 -95 129 -164 298 -190 464 -15 99 -6 294 19 393 l20 79 -77 106
c-43 59 -142 197 -222 307 l-144 200 -3 -983 -2 -982 -45 0 -45 0 0 1030 0
1031 72 -3 71 -3 94 -130 c266 -367 312 -432 326 -449 13 -18 17 -14 56 61
116 222 335 409 586 499 173 62 367 79 550 49z"/>
<path d="M1506 2329 c-332 -48 -625 -260 -767 -552 l-38 -79 48 -66 c165 -231
825 -1140 837 -1152 12 -12 14 116 14 923 0 886 -1 937 -17 936 -10 -1 -45 -5
-77 -10z"/>
<path d="M666 1571 c-3 -5 -11 -54 -18 -110 -48 -407 186 -806 578 -987 80
-38 253 -87 285 -82 17 2 -18 55 -208 318 -126 173 -319 440 -430 593 -111
153 -204 273 -207 268z"/>
<path d="M1697 1123 c-4 -3 -7 -172 -7 -375 l0 -368 29 0 c48 0 172 27 255 54
229 77 444 257 560 467 40 73 76 170 76 206 l0 23 -453 0 c-250 0 -457 -3
-460 -7z"/>
</g>
</svg>
