<?xml version="1.0" encoding="iso-8859-1"?>
<!-- Generator: Adobe Illustrator 19.0.0, SVG Export Plug-In . SVG Version: 6.00 Build 0)  -->
<svg xmlns="http://www.w3.org/2000/svg" xmlns:xlink="http://www.w3.org/1999/xlink" version="1.1" id="Layer_1" x="0px" y="0px" viewBox="0 0 502 502" style="enable-background:new 0 0 502 502;" xml:space="preserve" width="512px" height="512px">
<g>
	<g>
		<g>
			<path d="M497,0H5C2.238,0,0,2.239,0,5v492c0,2.761,2.238,5,5,5h492c2.762,0,5-2.239,5-5V5C502,2.239,499.762,0,497,0z M492,492     H10V10h482V492z" fill="#FFFFFF"/>
			<path d="M120.503,167.074c0.299,0.006,0.595,0.009,0.893,0.009c11.55,0,22.98-4.709,31.498-13.01     c8.978-8.748,13.937-20.489,13.965-33.06c0.025-12.292-4.783-23.898-13.539-32.681c-8.738-8.765-20.289-13.598-32.524-13.61     c-0.014,0.001-0.021,0-0.032,0c-12.351,0-23.992,4.797-32.779,13.509c-8.808,8.733-13.659,20.315-13.659,32.613     c-0.003,12.582,4.948,24.366,13.94,33.18C96.941,162.53,108.691,167.275,120.503,167.074z M95.026,95.332     c6.902-6.842,16.042-10.61,25.739-10.61c0.007,0,0.016,0,0.024,0c9.561,0.009,18.599,3.799,25.45,10.67     c6.869,6.89,10.641,15.982,10.621,25.599c-0.021,9.858-3.908,19.063-10.944,25.919c-6.85,6.676-16.018,10.38-25.285,10.163     c-0.039-0.001-0.079-0.001-0.118-0.001c-0.034,0-0.068,0.001-0.1,0.001c-9.16,0.198-18.349-3.528-25.146-10.191     c-7.056-6.918-10.942-16.164-10.94-26.038C84.327,111.232,88.127,102.172,95.026,95.332z" fill="#FFFFFF"/>
			<path d="M144.728,188.574H96.454c-9.016,0-16.351,7.332-16.351,16.344v205.964c0,9.012,7.335,16.344,16.351,16.344h48.275     c9.015,0,16.349-7.332,16.349-16.344V204.918C161.078,195.906,153.744,188.574,144.728,188.574z M151.078,410.882     c0,3.498-2.849,6.344-6.35,6.344H96.454c-3.502,0-6.351-2.846-6.351-6.344V204.918c0-3.498,2.849-6.344,6.351-6.344h48.274     c3.501,0,6.35,2.846,6.35,6.344V410.882z" fill="#FFFFFF"/>
			<path d="M344.488,182.733h-12.381c-21.804,0-42.415,9.576-56.492,25.938v-10.39c0-5.355-4.357-9.712-9.712-9.712h-60.236     c-5.353,0-9.707,4.357-9.707,9.712V417.52c0,5.344,4.35,9.701,9.706,9.712l61.55,0.016c5.353,0,9.707-4.358,9.707-9.714v-126.66     c0-19.261,15.437-35.106,34.413-35.322c9.474-0.076,18.338,3.514,25.022,10.198c6.574,6.569,10.194,15.311,10.194,24.617V417.55     c0,5.343,4.35,9.7,9.706,9.712l61.692,0.011c0.008,0,0.014,0,0.021,0c2.585,0,5.015-1.005,6.847-2.832     c1.838-1.835,2.851-4.276,2.851-6.875V391c0-2.761-2.238-5-5-5c-2.762,0-5,2.239-5,5v26.273l-61.116-0.011V290.366     c0-11.978-4.661-23.232-13.125-31.689c-8.601-8.601-20.017-13.271-32.205-13.125c-24.427,0.278-44.3,20.608-44.3,45.321v126.373     l-60.963-0.016V198.568h59.655v24.994c0,3.31,3.125,5.413,6.236,5.044c1.808-0.215,3.096-1.341,3.967-2.873     c1.039-1.826,2.139-3.614,3.344-5.337c12.071-17.323,31.864-27.664,52.945-27.664h12.381c40.277,0,73.059,32.701,73.187,72.945     c-0.004,0.078-0.006,0.157-0.006,0.236V289c0,2.761,2.238,5,5,5c2.762,0,5-2.239,5-5v-22.842     c0.004-0.081,0.006-0.162,0.006-0.244C427.675,220.048,390.357,182.733,344.488,182.733z" fill="#FFFFFF"/>
			<path d="M422.668,323c-2.762,0-5,2.239-5,5v27c0,2.761,2.238,5,5,5c2.762,0,5-2.239,5-5v-27     C427.668,325.239,425.43,323,422.668,323z" fill="#FFFFFF"/>
			<path d="M408,51h43c2.762,0,5-2.239,5-5s-2.238-5-5-5h-43c-2.762,0-5,2.239-5,5S405.238,51,408,51z" fill="#FFFFFF"/>
			<path d="M200,51h158c2.762,0,5-2.239,5-5s-2.238-5-5-5H200c-2.762,0-5,2.239-5,5S197.238,51,200,51z" fill="#FFFFFF"/>
		</g>
	</g>
</g>
<g>
</g>
<g>
</g>
<g>
</g>
<g>
</g>
<g>
</g>
<g>
</g>
<g>
</g>
<g>
</g>
<g>
</g>
<g>
</g>
<g>
</g>
<g>
</g>
<g>
</g>
<g>
</g>
<g>
</g>
</svg>
